<svg xmlns="http://www.w3.org/2000/svg" viewBox="0 0 100 100" width="100" height="100">
    <!-- 背景 -->
    <rect width="100" height="100" fill="#000" />

    <!-- 星星 -->
    <circle cx="25" cy="25" r="5" fill="#FFD700" />
    <circle cx="75" cy="25" r="5" fill="#FFD700" />
    <circle cx="25" cy="75" r="5" fill="#FFD700" />
    <circle cx="75" cy="75" r="5" fill="#FFD700" />
    <circle cx="50" cy="50" r="5" fill="#FFD700" />

    <!-- 矿灯 -->
    <circle cx="50" cy="50" r="15" fill="#FFD700" />
    <circle cx="50" cy="50" r="10" fill="#FFFFFF" />
    <circle cx="50" cy="50" r="5" fill="#FFD700" />

    <!-- 数据流 -->
    <path d="M10,40 Q20,20 30,40 T90,40" stroke="#87CEEB" stroke-width="2" fill="none" />
    <path d="M10,60 Q20,80 30,60 T90,60" stroke="#87CEEB" stroke-width="2" fill="none" />

    <!-- 矿工帽 -->
    <path d="M85,10 L90,20 A10,10 0 0,1 95,10 H85 Z" fill="#8B4513" />
    <path d="M85,10 L90,20 A10,10 0 0,1 95,10" stroke="#FFFFFF" stroke-width="2" />

    <!-- 阴影效果 -->
    <circle cx="50" cy="50" r="18" fill="rgba(255, 215, 0, 0.3)" />
</svg>